<svg style="display: none; "  xmlns="http://www.w3.org/2000/svg">
    <symbol id="dribbble" viewBox="0 0 24 28">
        <path d="M16 23.438c-0.156-0.906-0.75-4.031-2.188-7.781-0.016 0-0.047 0.016-0.063 0.016 0 0-6.078 2.125-8.047 6.406-0.094-0.078-0.234-0.172-0.234-0.172 1.781 1.453 4.047 2.344 6.531 2.344 1.422 0 2.766-0.297 4-0.812zM13.109 13.953c-0.25-0.578-0.531-1.156-0.828-1.734-5.281 1.578-10.344 1.453-10.516 1.453-0.016 0.109-0.016 0.219-0.016 0.328 0 2.625 1 5.031 2.625 6.844v0c2.797-4.984 8.328-6.766 8.328-6.766 0.141-0.047 0.281-0.078 0.406-0.125zM11.438 10.641c-1.781-3.156-3.672-5.719-3.813-5.906-2.859 1.344-4.984 3.984-5.656 7.156 0.266 0 4.547 0.047 9.469-1.25zM22.125 15.625c-0.219-0.063-3.078-0.969-6.391-0.453 1.344 3.703 1.891 6.719 2 7.328 2.297-1.547 3.922-4.016 4.391-6.875zM9.547 4.047c-0.016 0-0.016 0-0.031 0.016 0 0 0.016-0.016 0.031-0.016zM18.766 6.312c-1.797-1.594-4.172-2.562-6.766-2.562-0.828 0-1.641 0.109-2.422 0.297 0.156 0.203 2.094 2.75 3.844 5.969 3.859-1.437 5.313-3.656 5.344-3.703zM22.25 13.891c-0.031-2.422-0.891-4.656-2.328-6.406-0.031 0.031-1.672 2.406-5.719 4.062 0.234 0.484 0.469 0.984 0.688 1.484 0.078 0.172 0.141 0.359 0.219 0.531 3.531-0.453 7.016 0.313 7.141 0.328zM24 14c0 6.625-5.375 12-12 12s-12-5.375-12-12 5.375-12 12-12 12 5.375 12 12z"></path>
    </symbol>
    <symbol id="facebook" viewBox="0 0 16 28">
        <path d="M14.984 0.187v4.125h-2.453c-1.922 0-2.281 0.922-2.281 2.25v2.953h4.578l-0.609 4.625h-3.969v11.859h-4.781v-11.859h-3.984v-4.625h3.984v-3.406c0-3.953 2.422-6.109 5.953-6.109 1.687 0 3.141 0.125 3.563 0.187z"></path>
    </symbol>
     <symbol id="twitter" viewBox="0 0 26 28">
        <path d="M25.312 6.375c-0.688 1-1.547 1.891-2.531 2.609 0.016 0.219 0.016 0.438 0.016 0.656 0 6.672-5.078 14.359-14.359 14.359-2.859 0-5.516-0.828-7.75-2.266 0.406 0.047 0.797 0.063 1.219 0.063 2.359 0 4.531-0.797 6.266-2.156-2.219-0.047-4.078-1.5-4.719-3.5 0.313 0.047 0.625 0.078 0.953 0.078 0.453 0 0.906-0.063 1.328-0.172-2.312-0.469-4.047-2.5-4.047-4.953v-0.063c0.672 0.375 1.453 0.609 2.281 0.641-1.359-0.906-2.25-2.453-2.25-4.203 0-0.938 0.25-1.797 0.688-2.547 2.484 3.062 6.219 5.063 10.406 5.281-0.078-0.375-0.125-0.766-0.125-1.156 0-2.781 2.25-5.047 5.047-5.047 1.453 0 2.766 0.609 3.687 1.594 1.141-0.219 2.234-0.641 3.203-1.219-0.375 1.172-1.172 2.156-2.219 2.781 1.016-0.109 2-0.391 2.906-0.781z"></path>
    </symbol>
    <symbol id="wifi" viewBox="0 0 32 28">
        <path d="M16 23.797c-0.406 0-2.594-2.188-2.594-2.609 0-0.766 2-1.188 2.594-1.188s2.594 0.422 2.594 1.188c0 0.422-2.188 2.609-2.594 2.609zM20.219 19.563c-0.219 0-1.922-1.563-4.219-1.563-2.312 0-3.984 1.563-4.219 1.563-0.375 0-2.641-2.25-2.641-2.625 0-0.141 0.063-0.266 0.156-0.359 1.672-1.656 4.391-2.578 6.703-2.578s5.031 0.922 6.703 2.578c0.094 0.094 0.156 0.219 0.156 0.359 0 0.375-2.266 2.625-2.641 2.625zM24.484 15.313c-0.125 0-0.266-0.063-0.359-0.125-2.578-2-4.75-3.187-8.125-3.187-4.719 0-8.313 3.313-8.484 3.313-0.359 0-2.609-2.25-2.609-2.625 0-0.125 0.063-0.25 0.156-0.344 2.797-2.797 7.016-4.344 10.938-4.344s8.141 1.547 10.938 4.344c0.094 0.094 0.156 0.219 0.156 0.344 0 0.375-2.25 2.625-2.609 2.625zM28.719 11.078c-0.125 0-0.25-0.063-0.344-0.141-3.609-3.172-7.5-4.937-12.375-4.937s-8.766 1.766-12.375 4.937c-0.094 0.078-0.219 0.141-0.344 0.141-0.359 0-2.625-2.25-2.625-2.625 0-0.141 0.063-0.266 0.156-0.359 3.953-3.922 9.656-6.094 15.188-6.094s11.234 2.172 15.188 6.094c0.094 0.094 0.156 0.219 0.156 0.359 0 0.375-2.266 2.625-2.625 2.625z"></path>
    </symbol>
      <symbol id="icomoon-ignore" viewBox="0 0 448 448">
        <path d="M448 336v32c0 8.75-7.25 16-16 16h-416c-8.75 0-16-7.25-16-16v-32c0-8.75 7.25-16 16-16h416c8.75 0 16 7.25 16 16zM448 240v32c0 8.75-7.25 16-16 16h-416c-8.75 0-16-7.25-16-16v-32c0-8.75 7.25-16 16-16h416c8.75 0 16 7.25 16 16zM448 144v32c0 8.75-7.25 16-16 16h-416c-8.75 0-16-7.25-16-16v-32c0-8.75 7.25-16 16-16h416c8.75 0 16 7.25 16 16zM448 48v32c0 8.75-7.25 16-16 16h-416c-8.75 0-16-7.25-16-16v-32c0-8.75 7.25-16 16-16h416c8.75 0 16 7.25 16 16z"></path>
    </symbol>
</svg>